<svg width="100" height="100" viewBox="0 0 100 100" xmlns="http://www.w3.org/2000/svg">
    <!-- Left and Right Red Arcs (Radar) -->
    <path d="M50,50 L50,15 A35,35 0 0,1 85,50 Z" fill="rgba(255, 0, 0, 0.3)"/>
    <path d="M50,50 L50,15 A35,35 0 0,0 15,50 Z" fill="rgba(255, 0, 0, 0.3)"/>

    <!-- Truck Body (White Trailer) -->
    <rect x="44" y="30" width="12" height="30" fill="white" stroke="black" stroke-width="1.5"/>

    <!-- Truck Cab (Red Top with Rounded Front) -->
    <path d="M44,20 Q50,15 56,20 L56,30 L44,30 Z" fill="red" stroke="black" stroke-width="1.5"/>

    <!-- Windshield (Curved) -->
    <path d="M46,22 Q50,18 54,22 L54,26 L46,26 Z" fill="white" stroke="black" stroke-width="0.5"/>

    <!-- Headlights (White Circles) -->
    <circle cx="47" cy="27" r="1.5" fill="white" stroke="black" stroke-width="0.5"/> <!-- Left Headlight -->
    <circle cx="53" cy="27" r="1.5" fill="white" stroke="black" stroke-width="0.5"/> <!-- Right Headlight -->

    <!-- Wheels -->
    <circle cx="46" cy="62" r="2" fill="black"/>
    <circle cx="54" cy="62" r="2" fill="black"/>

    <!-- Side Mirrors -->
    <line x1="42" y1="23" x2="44" y2="23" stroke="black" stroke-width="1"/>
    <line x1="56" y1="23" x2="58" y2="23" stroke="black" stroke-width="1"/>
</svg>